<svg width="717" height="150" viewBox="0 0 717 150" fill="none" xmlns="http://www.w3.org/2000/svg">
<path d="M25 150C18.099 150 12.1745 147.591 7.22656 142.773C2.40885 137.826 0 131.901 0 125V0H12.5V125C12.5 128.516 13.6719 131.51 16.0156 133.984C18.4896 136.328 21.4844 137.5 25 137.5C28.3854 137.5 31.3151 136.328 33.7891 133.984C36.263 131.51 37.5 128.516 37.5 125V0H50V125C50 131.901 47.526 137.826 42.5781 142.773C37.6302 147.591 31.7708 150 25 150ZM60.6094 150V0H73.1094V150H60.6094Z" fill="#FE943C"/>
<path d="M146 150C139.099 150 133.174 147.591 128.227 142.773C123.409 137.826 121 131.901 121 125V0H133.5V125C133.5 128.516 134.672 131.51 137.016 133.984C139.49 136.328 142.484 137.5 146 137.5C149.385 137.5 152.315 136.328 154.789 133.984C157.263 131.51 158.5 128.516 158.5 125V0H171V125C171 131.901 168.526 137.826 163.578 142.773C158.63 147.591 152.771 150 146 150ZM181.609 150V75C181.609 68.2292 184.018 62.3698 188.836 57.4219C193.784 52.474 199.708 50 206.609 50C213.38 50 219.24 52.474 224.188 57.4219C229.135 62.3698 231.609 68.2292 231.609 75V150H219.109V75C219.109 71.6146 217.872 68.6849 215.398 66.2109C212.924 63.737 209.995 62.5 206.609 62.5C203.094 62.5 200.099 63.737 197.625 66.2109C195.281 68.6849 194.109 71.6146 194.109 75V150H181.609ZM206.609 50C199.708 50 193.784 47.5911 188.836 42.7734C184.018 37.8255 181.609 31.901 181.609 25V0H194.109V25C194.109 28.5156 195.281 31.5104 197.625 33.9844C200.099 36.3281 203.094 37.5 206.609 37.5C209.995 37.5 212.924 36.3281 215.398 33.9844C217.872 31.5104 219.109 28.5156 219.109 25V0H231.609V25C231.609 31.901 229.135 37.8255 224.188 42.7734C219.24 47.5911 213.38 50 206.609 50Z" fill="#FE943C"/>
<path d="M292 137.5C295.385 137.5 298.315 136.328 300.789 133.984C303.263 131.51 304.5 128.516 304.5 125V25C304.5 21.6146 303.263 18.6849 300.789 16.2109C298.315 13.737 295.385 12.5 292 12.5H279.5V137.5H292ZM267 150V0H292C298.771 0 304.63 2.47396 309.578 7.42188C314.526 12.3698 317 18.2292 317 25V125C317 131.901 314.526 137.826 309.578 142.773C304.63 147.591 298.771 150 292 150H267ZM327.609 150V0H377.609V12.5H340.109V62.5H377.609V75H340.109V137.5H377.609V150H327.609ZM388.219 150V137.5H413.219C416.604 137.5 419.534 136.328 422.008 133.984C424.482 131.51 425.719 128.516 425.719 125V75H413.219C406.318 75 400.393 72.5911 395.445 67.7734C390.628 62.8255 388.219 56.901 388.219 50V25C388.219 18.2292 390.628 12.3698 395.445 7.42188C400.393 2.47396 406.318 0 413.219 0C419.99 0 425.849 2.47396 430.797 7.42188C435.745 12.3698 438.219 18.2292 438.219 25H425.719C425.719 21.6146 424.482 18.6849 422.008 16.2109C419.534 13.737 416.604 12.5 413.219 12.5C409.703 12.5 406.708 13.737 404.234 16.2109C401.891 18.6849 400.719 21.6146 400.719 25V50C400.719 53.5156 401.891 56.5104 404.234 58.9844C406.708 61.3281 409.703 62.5 413.219 62.5H425.719C429.104 62.5 432.034 63.737 434.508 66.2109C436.982 68.6849 438.219 71.6146 438.219 75V125C438.219 131.901 435.745 137.826 430.797 142.773C425.849 147.591 419.99 150 413.219 150H388.219ZM448.828 150V0H461.328V150H448.828ZM484.438 150V25C484.438 18.2292 486.846 12.3698 491.664 7.42188C496.612 2.47396 502.536 0 509.438 0C516.208 0 522.068 2.47396 527.016 7.42188C531.964 12.3698 534.438 18.2292 534.438 25H521.938C521.938 21.6146 520.701 18.6849 518.227 16.2109C515.753 13.737 512.823 12.5 509.438 12.5C505.922 12.5 502.927 13.737 500.453 16.2109C498.109 18.6849 496.938 21.6146 496.938 25V137.5H509.438C512.823 137.5 515.753 136.328 518.227 133.984C520.701 131.51 521.938 128.516 521.938 125V62.5H509.438V50H534.438V125C534.438 131.901 531.964 137.826 527.016 142.773C522.068 147.591 516.208 150 509.438 150H484.438ZM545.047 150V0H557.547L582.547 50V0H595.047V150H582.547V75L557.547 25V150H545.047ZM605.656 150V0H655.656V12.5H618.156V62.5H655.656V75H618.156V137.5H655.656V150H605.656ZM691.266 62.5C694.651 62.5 697.581 61.3281 700.055 58.9844C702.529 56.5104 703.766 53.5156 703.766 50V25C703.766 21.6146 702.529 18.6849 700.055 16.2109C697.581 13.737 694.651 12.5 691.266 12.5H678.766V62.5H691.266ZM666.266 150V0H691.266C698.036 0 703.896 2.47396 708.844 7.42188C713.792 12.3698 716.266 18.2292 716.266 25V50C716.266 56.901 713.792 62.8255 708.844 67.7734C703.896 72.5911 698.036 75 691.266 75C698.036 75 703.896 77.474 708.844 82.4219C713.792 87.3698 716.266 93.2292 716.266 100V150H703.766V100C703.766 96.6146 702.529 93.6849 700.055 91.2109C697.581 88.737 694.651 87.5 691.266 87.5H678.766V150H666.266Z" fill="#FE943C"/>
</svg>
